<svg width="25" height="25" viewBox="0 0 25 25" fill="none" xmlns="http://www.w3.org/2000/svg">
<path d="M11.3018 21.895L12.3857 22.979C12.8447 23.438 13.5869 23.438 14.041 22.979L23.5332 13.4917C23.9922 13.0327 23.9922 12.2905 23.5332 11.8364L14.041 2.34424C13.582 1.88525 12.8398 1.88525 12.3857 2.34424L11.3018 3.42822C10.8379 3.89209 10.8477 4.64893 11.3213 5.10303L17.2051 10.7085H3.17188C2.52246 10.7085 2 11.231 2 11.8804V13.4429C2 14.0923 2.52246 14.6147 3.17188 14.6147H17.2051L11.3213 20.2202C10.8428 20.6743 10.833 21.4312 11.3018 21.895Z" fill="#0B031C"/>
</svg>
