<svg width="48" height="47" viewBox="0 0 48 47" fill="none" xmlns="http://www.w3.org/2000/svg">
<path d="M15.885 4H32.265C38.505 4 43.575 9.07 43.575 15.31V31.69C43.575 34.6896 42.3834 37.5663 40.2624 39.6874C38.1413 41.8084 35.2646 43 32.265 43H15.885C9.64498 43 4.57498 37.93 4.57498 31.69V15.31C4.57498 12.3104 5.76657 9.43366 7.8876 7.31262C10.0086 5.19159 12.8854 4 15.885 4ZM15.495 7.9C13.6332 7.9 11.8476 8.63961 10.5311 9.95611C9.21459 11.2726 8.47498 13.0582 8.47498 14.92V32.08C8.47498 35.9605 11.6145 39.1 15.495 39.1H32.655C34.5168 39.1 36.3024 38.3604 37.6189 37.0439C38.9354 35.7274 39.675 33.9418 39.675 32.08V14.92C39.675 11.0395 36.5355 7.9 32.655 7.9H15.495ZM34.3125 10.825C34.9589 10.825 35.5789 11.0818 36.0361 11.5389C36.4932 11.996 36.75 12.616 36.75 13.2625C36.75 13.909 36.4932 14.529 36.0361 14.9861C35.5789 15.4432 34.9589 15.7 34.3125 15.7C33.666 15.7 33.046 15.4432 32.5889 14.9861C32.1318 14.529 31.875 13.909 31.875 13.2625C31.875 12.616 32.1318 11.996 32.5889 11.5389C33.046 11.0818 33.666 10.825 34.3125 10.825ZM24.075 13.75C26.6608 13.75 29.1408 14.7772 30.9693 16.6057C32.7978 18.4342 33.825 20.9141 33.825 23.5C33.825 26.0859 32.7978 28.5658 30.9693 30.3943C29.1408 32.2228 26.6608 33.25 24.075 33.25C21.4891 33.25 19.0092 32.2228 17.1807 30.3943C15.3522 28.5658 14.325 26.0859 14.325 23.5C14.325 20.9141 15.3522 18.4342 17.1807 16.6057C19.0092 14.7772 21.4891 13.75 24.075 13.75ZM24.075 17.65C22.5235 17.65 21.0355 18.2663 19.9384 19.3634C18.8413 20.4605 18.225 21.9485 18.225 23.5C18.225 25.0515 18.8413 26.5395 19.9384 27.6366C21.0355 28.7337 22.5235 29.35 24.075 29.35C25.6265 29.35 27.1145 28.7337 28.2116 27.6366C29.3086 26.5395 29.925 25.0515 29.925 23.5C29.925 21.9485 29.3086 20.4605 28.2116 19.3634C27.1145 18.2663 25.6265 17.65 24.075 17.65Z" fill="black"/>
</svg>
