<svg width="48" height="47" viewBox="0 0 48 47" fill="none" xmlns="http://www.w3.org/2000/svg">
<path d="M37.3975 9.67462C35.6097 7.86877 33.4803 6.43697 31.1334 5.46272C28.7865 4.48846 26.2691 3.99126 23.728 4.00012C13.081 4.00012 4.4035 12.6776 4.4035 23.3246C4.4035 26.7371 5.3005 30.0521 6.9775 32.9771L4.2475 43.0001L14.485 40.3091C17.3125 41.8496 20.491 42.6686 23.728 42.6686C34.375 42.6686 43.0525 33.9911 43.0525 23.3441C43.0525 18.1766 41.044 13.3211 37.3975 9.67462ZM23.728 39.3926C20.842 39.3926 18.0145 38.6126 15.538 37.1501L14.953 36.7991L8.869 38.3981L10.4875 32.4701L10.0975 31.8656C8.4941 29.3052 7.64272 26.3456 7.6405 23.3246C7.6405 14.4716 14.8555 7.25662 23.7085 7.25662C27.9985 7.25662 32.035 8.93362 35.0575 11.9756C36.5541 13.4653 37.7401 15.2373 38.5468 17.1888C39.3535 19.1403 39.7649 21.2325 39.757 23.3441C39.796 32.1971 32.581 39.3926 23.728 39.3926ZM32.542 27.3806C32.0545 27.1466 29.6755 25.9766 29.2465 25.8011C28.798 25.6451 28.486 25.5671 28.1545 26.0351C27.823 26.5226 26.9065 27.6146 26.6335 27.9266C26.3605 28.2581 26.068 28.2971 25.5805 28.0436C25.093 27.8096 23.533 27.2831 21.7 25.6451C20.257 24.3581 19.3015 22.7786 19.009 22.2911C18.736 21.8036 18.97 21.5501 19.2235 21.2966C19.438 21.0821 19.711 20.7311 19.945 20.4581C20.179 20.1851 20.2765 19.9706 20.4325 19.6586C20.5885 19.3271 20.5105 19.0541 20.3935 18.8201C20.2765 18.5861 19.3015 16.2071 18.9115 15.2321C18.5215 14.2961 18.112 14.4131 17.8195 14.3936H16.8835C16.552 14.3936 16.045 14.5106 15.5965 14.9981C15.1675 15.4856 13.9195 16.6556 13.9195 19.0346C13.9195 21.4136 15.655 23.7146 15.889 24.0266C16.123 24.3581 19.3015 29.2331 24.1375 31.3196C25.288 31.8266 26.185 32.1191 26.887 32.3336C28.0375 32.7041 29.0905 32.6456 29.929 32.5286C30.865 32.3921 32.7955 31.3586 33.1855 30.2276C33.595 29.0966 33.595 28.1411 33.4585 27.9266C33.322 27.7121 33.0295 27.6146 32.542 27.3806Z" fill="black"/>
</svg>
